<svg xmlns="http://www.w3.org/2000/svg" xmlns:xlink="http://www.w3.org/1999/xlink" width="1000" zoomAndPan="magnify" viewBox="0 0 750 374.999991" height="500" preserveAspectRatio="xMidYMid meet" version="1.0"><defs><g/></defs><g fill="#ffffff" fill-opacity="1"><g transform="translate(15.818821, 215.02517)"><g><path d="M 178.34375 -44 C 179.132812 -44.257812 180.316406 -44.390625 181.890625 -44.390625 C 186.335938 -44.390625 188.5625 -41.507812 188.5625 -35.75 C 188.5625 -32.601562 187.875 -29.945312 186.5 -27.78125 C 185.125 -25.625 183 -24.285156 180.125 -23.765625 C 168.207031 -21.535156 156.484375 -19.046875 144.953125 -16.296875 L 144.375 -11.59375 C 140.707031 14.207031 133.40625 33.296875 122.46875 45.671875 C 111.53125 58.046875 97.878906 64.234375 81.515625 64.234375 C 70.648438 64.234375 62.238281 61.578125 56.28125 56.265625 C 50.320312 50.960938 47.34375 44.1875 47.34375 35.9375 C 47.34375 22.195312 53.492188 9.957031 65.796875 -0.78125 C 78.109375 -11.519531 96.769531 -21.015625 121.78125 -29.265625 L 125.703125 -56.96875 C 126.234375 -60.101562 126.890625 -64.289062 127.671875 -69.53125 C 121.515625 -53.289062 113.65625 -41.175781 104.09375 -33.1875 C 94.539062 -25.207031 83.875 -21.21875 72.09375 -21.21875 C 60.820312 -21.21875 52.238281 -24.65625 46.34375 -31.53125 C 40.457031 -38.40625 37.515625 -47.273438 37.515625 -58.140625 C 37.515625 -62.984375 38.035156 -68.316406 39.078125 -74.140625 C 40.128906 -79.972656 41.769531 -87.863281 44 -97.8125 C 45.957031 -106.851562 47.425781 -114.054688 48.40625 -119.421875 C 49.394531 -124.796875 49.890625 -129.578125 49.890625 -133.765625 C 49.890625 -140.046875 47.46875 -143.1875 42.625 -143.1875 C 38.820312 -143.1875 34.332031 -141.320312 29.15625 -137.59375 C 23.988281 -133.863281 18.523438 -128.132812 12.765625 -120.40625 C 10.929688 -117.914062 8.898438 -116.671875 6.671875 -116.671875 C 4.835938 -116.671875 3.234375 -117.554688 1.859375 -119.328125 C 0.484375 -121.097656 -0.203125 -123.09375 -0.203125 -125.3125 C -0.203125 -129.375 1.628906 -133.957031 5.296875 -139.0625 C 18.660156 -157.394531 34.3125 -166.5625 52.25 -166.5625 C 60.238281 -166.5625 66.488281 -164.140625 71 -159.296875 C 75.519531 -154.453125 77.78125 -147.316406 77.78125 -137.890625 C 77.78125 -131.078125 77.15625 -124.101562 75.90625 -116.96875 C 74.664062 -109.832031 72.800781 -100.765625 70.3125 -89.765625 C 68.75 -83.210938 67.570312 -77.941406 66.78125 -73.953125 C 66 -69.960938 65.609375 -66.65625 65.609375 -64.03125 C 65.609375 -57.351562 66.785156 -52.570312 69.140625 -49.6875 C 71.492188 -46.8125 75.617188 -45.375 81.515625 -45.375 C 88.585938 -45.375 95.820312 -49.269531 103.21875 -57.0625 C 110.613281 -64.851562 117.289062 -76.671875 123.25 -92.515625 C 129.207031 -108.359375 133.5 -127.738281 136.125 -150.65625 C 136.78125 -156.414062 138.285156 -160.503906 140.640625 -162.921875 C 142.992188 -165.347656 146.398438 -166.5625 150.859375 -166.5625 C 160.015625 -166.5625 164.59375 -161.976562 164.59375 -152.8125 C 164.59375 -151.238281 164.53125 -149.992188 164.40625 -149.078125 C 161.65625 -129.566406 159.101562 -111.957031 156.75 -96.25 C 155.4375 -86.820312 154.023438 -77.128906 152.515625 -67.171875 C 151.015625 -57.222656 149.546875 -47.140625 148.109375 -36.921875 C 157.660156 -39.546875 167.738281 -41.90625 178.34375 -44 Z M 118.828125 -8.640625 C 87.140625 2.359375 71.296875 15.710938 71.296875 31.421875 C 71.296875 35.085938 72.441406 38.128906 74.734375 40.546875 C 77.023438 42.972656 80.269531 44.1875 84.46875 44.1875 C 102.664062 44.1875 114.054688 27.035156 118.640625 -7.265625 Z M 118.828125 -8.640625 "/></g></g></g><g fill="#ffffff" fill-opacity="1"><g transform="translate(182.974711, 215.02517)"><g><path d="M 29.46875 0.984375 C 23.570312 0.984375 18.753906 -1.734375 15.015625 -7.171875 C 11.285156 -12.609375 9.421875 -19.382812 9.421875 -27.5 C 9.421875 -37.320312 10.078125 -46.320312 11.390625 -54.5 C 12.703125 -62.6875 14.863281 -71.363281 17.875 -80.53125 C 19.1875 -84.457031 21.019531 -87.269531 23.375 -88.96875 C 25.726562 -90.675781 29.457031 -91.53125 34.5625 -91.53125 C 37.445312 -91.53125 39.445312 -91.070312 40.5625 -90.15625 C 41.675781 -89.238281 42.234375 -87.863281 42.234375 -86.03125 C 42.234375 -84.988281 41.507812 -81.453125 40.0625 -75.421875 C 38.757812 -70.578125 37.710938 -66.191406 36.921875 -62.265625 C 34.304688 -48.515625 33 -39.347656 33 -34.765625 C 33 -32.015625 33.328125 -30.082031 33.984375 -28.96875 C 34.640625 -27.851562 35.6875 -27.296875 37.125 -27.296875 C 39.082031 -27.296875 41.535156 -29.257812 44.484375 -33.1875 C 47.429688 -37.125 50.570312 -43.082031 53.90625 -51.0625 C 57.25 -59.050781 60.492188 -68.875 63.640625 -80.53125 C 64.691406 -84.457031 66.296875 -87.269531 68.453125 -88.96875 C 70.609375 -90.675781 73.847656 -91.53125 78.171875 -91.53125 C 81.179688 -91.53125 83.273438 -91.171875 84.453125 -90.453125 C 85.640625 -89.734375 86.234375 -88.390625 86.234375 -86.421875 C 86.234375 -83.148438 84.59375 -74.179688 81.3125 -59.515625 C 77.644531 -42.753906 75.8125 -32.410156 75.8125 -28.484375 C 75.8125 -25.992188 76.335938 -24.0625 77.390625 -22.6875 C 78.441406 -21.3125 79.816406 -20.625 81.515625 -20.625 C 84.128906 -20.625 87.238281 -22.226562 90.84375 -25.4375 C 94.445312 -28.644531 99.257812 -33.847656 105.28125 -41.046875 C 106.851562 -42.878906 108.617188 -43.796875 110.578125 -43.796875 C 112.285156 -43.796875 113.628906 -43.007812 114.609375 -41.4375 C 115.585938 -39.875 116.078125 -37.71875 116.078125 -34.96875 C 116.078125 -29.726562 114.835938 -25.664062 112.359375 -22.78125 C 106.722656 -15.84375 100.664062 -10.144531 94.1875 -5.6875 C 87.707031 -1.238281 80.34375 0.984375 72.09375 0.984375 C 65.800781 0.984375 61.179688 -1.4375 58.234375 -6.28125 C 55.285156 -11.125 53.8125 -17.9375 53.8125 -26.71875 C 51.59375 -17.8125 48.253906 -10.96875 43.796875 -6.1875 C 39.347656 -1.40625 34.570312 0.984375 29.46875 0.984375 Z M 29.46875 0.984375 "/></g></g></g><g fill="#ffffff" fill-opacity="1"><g transform="translate(273.722094, 215.02517)"><g><path d="M 23.375 0.984375 C 18.394531 0.984375 14.890625 -1.632812 12.859375 -6.875 C 10.835938 -12.113281 9.828125 -20.492188 9.828125 -32.015625 C 9.828125 -49.035156 12.25 -65.207031 17.09375 -80.53125 C 18.269531 -84.332031 20.195312 -87.113281 22.875 -88.875 C 25.5625 -90.644531 29.328125 -91.53125 34.171875 -91.53125 C 36.796875 -91.53125 38.628906 -91.203125 39.671875 -90.546875 C 40.722656 -89.890625 41.25 -88.644531 41.25 -86.8125 C 41.25 -84.71875 40.265625 -80.003906 38.296875 -72.671875 C 36.992188 -67.429688 35.945312 -62.878906 35.15625 -59.015625 C 34.375 -55.160156 33.71875 -50.351562 33.1875 -44.59375 C 36.726562 -54.800781 40.953125 -63.441406 45.859375 -70.515625 C 50.773438 -77.585938 55.816406 -82.859375 60.984375 -86.328125 C 66.160156 -89.796875 71.039062 -91.53125 75.625 -91.53125 C 80.207031 -91.53125 83.445312 -90.484375 85.34375 -88.390625 C 87.238281 -86.296875 88.1875 -83.085938 88.1875 -78.765625 C 88.1875 -74.578125 86.945312 -66.984375 84.46875 -55.984375 C 83.414062 -51.265625 82.691406 -47.726562 82.296875 -45.375 C 88.847656 -61.476562 96.113281 -73.195312 104.09375 -80.53125 C 112.082031 -87.863281 119.550781 -91.53125 126.5 -91.53125 C 135.007812 -91.53125 139.265625 -87.273438 139.265625 -78.765625 C 139.265625 -73.660156 137.820312 -64.425781 134.9375 -51.0625 C 132.445312 -39.675781 131.203125 -32.148438 131.203125 -28.484375 C 131.203125 -23.242188 133.101562 -20.625 136.90625 -20.625 C 139.519531 -20.625 142.628906 -22.226562 146.234375 -25.4375 C 149.835938 -28.644531 154.648438 -33.847656 160.671875 -41.046875 C 162.242188 -42.878906 164.007812 -43.796875 165.96875 -43.796875 C 167.675781 -43.796875 169.019531 -43.007812 170 -41.4375 C 170.976562 -39.875 171.46875 -37.71875 171.46875 -34.96875 C 171.46875 -29.726562 170.226562 -25.664062 167.75 -22.78125 C 162.113281 -15.84375 156.054688 -10.144531 149.578125 -5.6875 C 143.097656 -1.238281 135.734375 0.984375 127.484375 0.984375 C 120.796875 0.984375 115.75 -0.945312 112.34375 -4.8125 C 108.945312 -8.675781 107.25 -14.273438 107.25 -21.609375 C 107.25 -25.273438 108.164062 -31.820312 110 -41.25 C 111.695312 -49.5 112.546875 -55.195312 112.546875 -58.34375 C 112.546875 -60.4375 111.828125 -61.484375 110.390625 -61.484375 C 108.679688 -61.484375 106.253906 -59.285156 103.109375 -54.890625 C 99.972656 -50.503906 96.832031 -44.710938 93.6875 -37.515625 C 90.550781 -30.316406 88 -22.722656 86.03125 -14.734375 C 84.59375 -8.441406 82.921875 -4.25 81.015625 -2.15625 C 79.117188 -0.0625 76.078125 0.984375 71.890625 0.984375 C 67.566406 0.984375 64.320312 -1.078125 62.15625 -5.203125 C 60 -9.328125 58.921875 -14.335938 58.921875 -20.234375 C 58.921875 -25.210938 59.578125 -32.414062 60.890625 -41.84375 C 61.941406 -50.21875 62.46875 -55.71875 62.46875 -58.34375 C 62.46875 -60.4375 61.742188 -61.484375 60.296875 -61.484375 C 58.335938 -61.484375 55.847656 -59.125 52.828125 -54.40625 C 49.816406 -49.695312 46.90625 -43.675781 44.09375 -36.34375 C 41.28125 -29.007812 39.019531 -21.804688 37.3125 -14.734375 C 35.875 -8.578125 34.207031 -4.414062 32.3125 -2.25 C 30.414062 -0.09375 27.4375 0.984375 23.375 0.984375 Z M 23.375 0.984375 "/></g></g></g><g fill="#ffffff" fill-opacity="1"><g transform="translate(419.860725, 215.02517)"><g><path d="M 23.375 0.984375 C 18.394531 0.984375 14.890625 -1.632812 12.859375 -6.875 C 10.835938 -12.113281 9.828125 -20.492188 9.828125 -32.015625 C 9.828125 -49.035156 12.25 -65.207031 17.09375 -80.53125 C 18.269531 -84.332031 20.195312 -87.113281 22.875 -88.875 C 25.5625 -90.644531 29.328125 -91.53125 34.171875 -91.53125 C 36.796875 -91.53125 38.628906 -91.203125 39.671875 -90.546875 C 40.722656 -89.890625 41.25 -88.644531 41.25 -86.8125 C 41.25 -84.71875 40.265625 -80.003906 38.296875 -72.671875 C 36.992188 -67.429688 35.945312 -62.878906 35.15625 -59.015625 C 34.375 -55.160156 33.71875 -50.351562 33.1875 -44.59375 C 36.726562 -54.800781 40.953125 -63.441406 45.859375 -70.515625 C 50.773438 -77.585938 55.816406 -82.859375 60.984375 -86.328125 C 66.160156 -89.796875 71.039062 -91.53125 75.625 -91.53125 C 80.207031 -91.53125 83.445312 -90.484375 85.34375 -88.390625 C 87.238281 -86.296875 88.1875 -83.085938 88.1875 -78.765625 C 88.1875 -74.578125 86.945312 -66.984375 84.46875 -55.984375 C 83.414062 -51.265625 82.691406 -47.726562 82.296875 -45.375 C 88.847656 -61.476562 96.113281 -73.195312 104.09375 -80.53125 C 112.082031 -87.863281 119.550781 -91.53125 126.5 -91.53125 C 135.007812 -91.53125 139.265625 -87.273438 139.265625 -78.765625 C 139.265625 -73.660156 137.820312 -64.425781 134.9375 -51.0625 C 132.445312 -39.675781 131.203125 -32.148438 131.203125 -28.484375 C 131.203125 -23.242188 133.101562 -20.625 136.90625 -20.625 C 139.519531 -20.625 142.628906 -22.226562 146.234375 -25.4375 C 149.835938 -28.644531 154.648438 -33.847656 160.671875 -41.046875 C 162.242188 -42.878906 164.007812 -43.796875 165.96875 -43.796875 C 167.675781 -43.796875 169.019531 -43.007812 170 -41.4375 C 170.976562 -39.875 171.46875 -37.71875 171.46875 -34.96875 C 171.46875 -29.726562 170.226562 -25.664062 167.75 -22.78125 C 162.113281 -15.84375 156.054688 -10.144531 149.578125 -5.6875 C 143.097656 -1.238281 135.734375 0.984375 127.484375 0.984375 C 120.796875 0.984375 115.75 -0.945312 112.34375 -4.8125 C 108.945312 -8.675781 107.25 -14.273438 107.25 -21.609375 C 107.25 -25.273438 108.164062 -31.820312 110 -41.25 C 111.695312 -49.5 112.546875 -55.195312 112.546875 -58.34375 C 112.546875 -60.4375 111.828125 -61.484375 110.390625 -61.484375 C 108.679688 -61.484375 106.253906 -59.285156 103.109375 -54.890625 C 99.972656 -50.503906 96.832031 -44.710938 93.6875 -37.515625 C 90.550781 -30.316406 88 -22.722656 86.03125 -14.734375 C 84.59375 -8.441406 82.921875 -4.25 81.015625 -2.15625 C 79.117188 -0.0625 76.078125 0.984375 71.890625 0.984375 C 67.566406 0.984375 64.320312 -1.078125 62.15625 -5.203125 C 60 -9.328125 58.921875 -14.335938 58.921875 -20.234375 C 58.921875 -25.210938 59.578125 -32.414062 60.890625 -41.84375 C 61.941406 -50.21875 62.46875 -55.71875 62.46875 -58.34375 C 62.46875 -60.4375 61.742188 -61.484375 60.296875 -61.484375 C 58.335938 -61.484375 55.847656 -59.125 52.828125 -54.40625 C 49.816406 -49.695312 46.90625 -43.675781 44.09375 -36.34375 C 41.28125 -29.007812 39.019531 -21.804688 37.3125 -14.734375 C 35.875 -8.578125 34.207031 -4.414062 32.3125 -2.25 C 30.414062 -0.09375 27.4375 0.984375 23.375 0.984375 Z M 23.375 0.984375 "/></g></g></g><g fill="#ffffff" fill-opacity="1"><g transform="translate(565.999355, 215.02517)"><g><path d="M 83.875 -43.796875 C 85.570312 -43.796875 86.910156 -43.007812 87.890625 -41.4375 C 88.878906 -39.875 89.375 -37.71875 89.375 -34.96875 C 89.375 -29.726562 88.128906 -25.664062 85.640625 -22.78125 C 80.003906 -15.84375 73.878906 -10.144531 67.265625 -5.6875 C 60.660156 -1.238281 53.164062 0.984375 44.78125 0.984375 C 33.257812 0.984375 24.710938 -4.253906 19.140625 -14.734375 C 13.578125 -25.210938 10.796875 -38.765625 10.796875 -55.390625 C 10.796875 -71.367188 12.859375 -89.570312 16.984375 -110 C 21.109375 -130.425781 27.195312 -147.972656 35.25 -162.640625 C 43.3125 -177.304688 52.90625 -184.640625 64.03125 -184.640625 C 70.320312 -184.640625 75.265625 -181.722656 78.859375 -175.890625 C 82.460938 -170.066406 84.265625 -161.722656 84.265625 -150.859375 C 84.265625 -135.273438 79.941406 -117.203125 71.296875 -96.640625 C 62.660156 -76.078125 50.941406 -55.710938 36.140625 -35.546875 C 37.054688 -30.179688 38.5625 -26.351562 40.65625 -24.0625 C 42.75 -21.769531 45.5 -20.625 48.90625 -20.625 C 54.28125 -20.625 58.992188 -22.160156 63.046875 -25.234375 C 67.109375 -28.316406 72.28125 -33.585938 78.5625 -41.046875 C 80.132812 -42.878906 81.90625 -43.796875 83.875 -43.796875 Z M 59.71875 -165.1875 C 56.695312 -165.1875 53.285156 -159.75 49.484375 -148.875 C 45.691406 -138.007812 42.351562 -124.523438 39.46875 -108.421875 C 36.59375 -92.316406 35.023438 -76.863281 34.765625 -62.0625 C 44.066406 -77.382812 51.46875 -92.738281 56.96875 -108.125 C 62.46875 -123.507812 65.21875 -137.554688 65.21875 -150.265625 C 65.21875 -160.210938 63.382812 -165.1875 59.71875 -165.1875 Z M 59.71875 -165.1875 "/></g></g></g><g fill="#ffffff" fill-opacity="1"><g transform="translate(630.033211, 215.02517)"><g><path d="M 110 -43.40625 C 111.695312 -43.40625 113.035156 -42.585938 114.015625 -40.953125 C 115.003906 -39.316406 115.5 -37.253906 115.5 -34.765625 C 115.5 -31.753906 115.039062 -29.394531 114.125 -27.6875 C 113.207031 -25.988281 111.765625 -24.484375 109.796875 -23.171875 L 72.09375 2.15625 C 67.113281 29.257812 60.597656 50.570312 52.546875 66.09375 C 44.492188 81.613281 34.242188 89.375 21.796875 89.375 C 15.117188 89.375 9.6875 87.3125 5.5 83.1875 C 1.3125 79.0625 -0.78125 73.660156 -0.78125 66.984375 C -0.78125 60.828125 0.625 54.539062 3.4375 48.125 C 6.25 41.707031 11.484375 34.335938 19.140625 26.015625 C 26.804688 17.703125 37.644531 8.179688 51.65625 -2.546875 L 52.25 -7.078125 C 53.164062 -11.921875 54.210938 -18.859375 55.390625 -27.890625 C 52.773438 -18.460938 49.109375 -11.289062 44.390625 -6.375 C 39.671875 -1.46875 34.695312 0.984375 29.46875 0.984375 C 23.570312 0.984375 18.753906 -1.734375 15.015625 -7.171875 C 11.285156 -12.609375 9.421875 -19.382812 9.421875 -27.5 C 9.421875 -37.320312 10.078125 -46.320312 11.390625 -54.5 C 12.703125 -62.6875 14.863281 -71.363281 17.875 -80.53125 C 19.1875 -84.457031 21.019531 -87.269531 23.375 -88.96875 C 25.726562 -90.675781 29.457031 -91.53125 34.5625 -91.53125 C 37.445312 -91.53125 39.445312 -91.070312 40.5625 -90.15625 C 41.675781 -89.238281 42.234375 -87.863281 42.234375 -86.03125 C 42.234375 -84.988281 41.507812 -81.453125 40.0625 -75.421875 C 38.757812 -70.578125 37.710938 -66.191406 36.921875 -62.265625 C 35.878906 -56.898438 34.960938 -51.757812 34.171875 -46.84375 C 33.390625 -41.9375 33 -37.910156 33 -34.765625 C 33 -29.785156 34.375 -27.296875 37.125 -27.296875 C 39.082031 -27.296875 41.535156 -29.257812 44.484375 -33.1875 C 47.429688 -37.125 50.570312 -43.082031 53.90625 -51.0625 C 57.25 -59.050781 60.492188 -68.875 63.640625 -80.53125 C 64.691406 -84.457031 66.296875 -87.269531 68.453125 -88.96875 C 70.609375 -90.675781 73.847656 -91.53125 78.171875 -91.53125 C 81.179688 -91.53125 83.273438 -91.132812 84.453125 -90.34375 C 85.640625 -89.5625 86.234375 -88.253906 86.234375 -86.421875 C 86.234375 -83.148438 84.53125 -71.890625 81.125 -52.640625 L 76.015625 -21.015625 C 86.097656 -28.609375 95.921875 -35.550781 105.484375 -41.84375 C 107.179688 -42.882812 108.6875 -43.40625 110 -43.40625 Z M 23.96875 70.3125 C 27.238281 70.3125 30.898438 66.515625 34.953125 58.921875 C 39.015625 51.328125 43.078125 38.691406 47.140625 21.015625 C 37.054688 29.523438 29.753906 37.28125 25.234375 44.28125 C 20.722656 51.289062 18.46875 57.414062 18.46875 62.65625 C 18.46875 64.882812 18.890625 66.71875 19.734375 68.15625 C 20.585938 69.59375 22 70.3125 23.96875 70.3125 Z M 23.96875 70.3125 "/></g></g></g><g fill="#ffffff" fill-opacity="1"><g transform="translate(185.283294, 317.961322)"><g><path d="M 9.015625 -63.765625 L 36.4375 -63.765625 C 40.382812 -63.765625 43.890625 -63.203125 46.953125 -62.078125 C 50.023438 -60.953125 52.5625 -59.390625 54.5625 -57.390625 C 56.144531 -55.804688 57.359375 -53.953125 58.203125 -51.828125 C 59.054688 -49.703125 59.484375 -47.363281 59.484375 -44.8125 L 59.484375 -44.640625 C 59.484375 -41.960938 59.054688 -39.578125 58.203125 -37.484375 C 57.359375 -35.390625 56.160156 -33.566406 54.609375 -32.015625 C 53.054688 -30.472656 51.21875 -29.195312 49.09375 -28.1875 C 46.96875 -27.1875 44.660156 -26.472656 42.171875 -26.046875 L 61.765625 0 L 52.921875 0 L 34.4375 -24.78125 L 16.21875 -24.78125 L 16.21875 0 L 9.015625 0 Z M 35.796875 -31.25 C 38.171875 -31.25 40.359375 -31.550781 42.359375 -32.15625 C 44.359375 -32.757812 46.085938 -33.625 47.546875 -34.75 C 49.003906 -35.875 50.144531 -37.238281 50.96875 -38.84375 C 51.789062 -40.457031 52.203125 -42.296875 52.203125 -44.359375 L 52.203125 -44.546875 C 52.203125 -48.492188 50.773438 -51.570312 47.921875 -53.78125 C 45.066406 -56 41.054688 -57.109375 35.890625 -57.109375 L 16.21875 -57.109375 L 16.21875 -31.25 Z M 35.796875 -31.25 "/></g></g></g><g fill="#ffffff" fill-opacity="1"><g transform="translate(251.132799, 317.961322)"><g><path d="M 9.015625 -63.765625 L 55.109375 -63.765625 L 55.109375 -57.203125 L 16.21875 -57.203125 L 16.21875 -35.4375 L 51.015625 -35.4375 L 51.015625 -28.875 L 16.21875 -28.875 L 16.21875 -6.5625 L 55.5625 -6.5625 L 55.5625 0 L 9.015625 0 Z M 9.015625 -63.765625 "/></g></g></g><g fill="#ffffff" fill-opacity="1"><g transform="translate(312.155165, 317.961322)"><g><path d="M 38.171875 1.09375 C 33.554688 1.09375 29.300781 0.242188 25.40625 -1.453125 C 21.519531 -3.160156 18.148438 -5.484375 15.296875 -8.421875 C 12.441406 -11.367188 10.207031 -14.847656 8.59375 -18.859375 C 6.988281 -22.867188 6.1875 -27.148438 6.1875 -31.703125 L 6.1875 -31.890625 C 6.1875 -36.378906 6.988281 -40.625 8.59375 -44.625 C 10.207031 -48.632812 12.441406 -52.144531 15.296875 -55.15625 C 18.148438 -58.164062 21.550781 -60.535156 25.5 -62.265625 C 29.445312 -63.992188 33.757812 -64.859375 38.4375 -64.859375 C 41.351562 -64.859375 43.976562 -64.613281 46.3125 -64.125 C 48.65625 -63.644531 50.828125 -62.960938 52.828125 -62.078125 C 54.835938 -61.203125 56.691406 -60.140625 58.390625 -58.890625 C 60.085938 -57.648438 61.726562 -56.269531 63.3125 -54.75 L 58.390625 -49.46875 C 55.660156 -52.019531 52.726562 -54.113281 49.59375 -55.75 C 46.46875 -57.382812 42.71875 -58.203125 38.34375 -58.203125 C 34.820312 -58.203125 31.554688 -57.535156 28.546875 -56.203125 C 25.546875 -54.867188 22.9375 -53.015625 20.71875 -50.640625 C 18.507812 -48.273438 16.78125 -45.5 15.53125 -42.3125 C 14.289062 -39.125 13.671875 -35.707031 13.671875 -32.0625 L 13.671875 -31.890625 C 13.671875 -28.179688 14.289062 -24.734375 15.53125 -21.546875 C 16.78125 -18.359375 18.507812 -15.578125 20.71875 -13.203125 C 22.9375 -10.835938 25.546875 -8.972656 28.546875 -7.609375 C 31.554688 -6.242188 34.820312 -5.5625 38.34375 -5.5625 C 42.71875 -5.5625 46.484375 -6.363281 49.640625 -7.96875 C 52.804688 -9.582031 55.90625 -11.84375 58.9375 -14.75 L 63.671875 -10.109375 C 62.035156 -8.410156 60.320312 -6.878906 58.53125 -5.515625 C 56.738281 -4.148438 54.804688 -2.976562 52.734375 -2 C 50.671875 -1.03125 48.457031 -0.273438 46.09375 0.265625 C 43.726562 0.816406 41.085938 1.09375 38.171875 1.09375 Z M 38.171875 1.09375 "/></g></g></g><g fill="#ffffff" fill-opacity="1"><g transform="translate(379.735155, 317.961322)"><g><path d="M 9.65625 -63.765625 L 16.859375 -63.765625 L 16.859375 0 L 9.65625 0 Z M 9.65625 -63.765625 "/></g></g></g><g fill="#ffffff" fill-opacity="1"><g transform="translate(406.238891, 317.961322)"><g><path d="M 9.015625 -63.765625 L 32.890625 -63.765625 C 36.472656 -63.765625 39.734375 -63.289062 42.671875 -62.34375 C 45.617188 -61.40625 48.140625 -60.070312 50.234375 -58.34375 C 52.328125 -56.613281 53.9375 -54.503906 55.0625 -52.015625 C 56.1875 -49.523438 56.75 -46.703125 56.75 -43.546875 L 56.75 -43.359375 C 56.75 -39.898438 56.082031 -36.878906 54.75 -34.296875 C 53.414062 -31.710938 51.609375 -29.539062 49.328125 -27.78125 C 47.046875 -26.019531 44.382812 -24.695312 41.34375 -23.8125 C 38.3125 -22.9375 35.097656 -22.5 31.703125 -22.5 L 16.21875 -22.5 L 16.21875 0 L 9.015625 0 Z M 31.96875 -29.0625 C 34.582031 -29.0625 36.96875 -29.394531 39.125 -30.0625 C 41.28125 -30.726562 43.128906 -31.679688 44.671875 -32.921875 C 46.222656 -34.171875 47.410156 -35.644531 48.234375 -37.34375 C 49.054688 -39.050781 49.46875 -40.96875 49.46875 -43.09375 L 49.46875 -43.265625 C 49.46875 -47.828125 47.898438 -51.273438 44.765625 -53.609375 C 41.640625 -55.941406 37.5 -57.109375 32.34375 -57.109375 L 16.21875 -57.109375 L 16.21875 -29.0625 Z M 31.96875 -29.0625 "/></g></g></g><g fill="#ffffff" fill-opacity="1"><g transform="translate(467.079112, 317.961322)"><g><path d="M 9.015625 -63.765625 L 55.109375 -63.765625 L 55.109375 -57.203125 L 16.21875 -57.203125 L 16.21875 -35.4375 L 51.015625 -35.4375 L 51.015625 -28.875 L 16.21875 -28.875 L 16.21875 -6.5625 L 55.5625 -6.5625 L 55.5625 0 L 9.015625 0 Z M 9.015625 -63.765625 "/></g></g></g><g fill="#ffffff" fill-opacity="1"><g transform="translate(528.101478, 317.961322)"><g><path d="M 30.875 0.90625 C 25.78125 0.90625 21.117188 0.0703125 16.890625 -1.59375 C 12.671875 -3.257812 8.648438 -5.828125 4.828125 -9.296875 L 9.296875 -14.578125 C 12.628906 -11.535156 15.992188 -9.269531 19.390625 -7.78125 C 22.796875 -6.300781 26.71875 -5.5625 31.15625 -5.5625 C 35.46875 -5.5625 38.910156 -6.578125 41.484375 -8.609375 C 44.066406 -10.640625 45.359375 -13.234375 45.359375 -16.390625 L 45.359375 -16.578125 C 45.359375 -18.035156 45.113281 -19.351562 44.625 -20.53125 C 44.144531 -21.71875 43.296875 -22.796875 42.078125 -23.765625 C 40.867188 -24.742188 39.1875 -25.625 37.03125 -26.40625 C 34.875 -27.195312 32.125 -27.957031 28.78125 -28.6875 C 25.132812 -29.476562 21.960938 -30.390625 19.265625 -31.421875 C 16.566406 -32.453125 14.332031 -33.695312 12.5625 -35.15625 C 10.800781 -36.613281 9.492188 -38.3125 8.640625 -40.25 C 7.796875 -42.195312 7.375 -44.476562 7.375 -47.09375 L 7.375 -47.28125 C 7.375 -49.769531 7.890625 -52.078125 8.921875 -54.203125 C 9.953125 -56.328125 11.410156 -58.160156 13.296875 -59.703125 C 15.179688 -61.253906 17.398438 -62.46875 19.953125 -63.34375 C 22.503906 -64.226562 25.296875 -64.671875 28.328125 -64.671875 C 33.003906 -64.671875 37.085938 -64.019531 40.578125 -62.71875 C 44.066406 -61.414062 47.453125 -59.457031 50.734375 -56.84375 L 46.546875 -51.28125 C 43.566406 -53.707031 40.570312 -55.46875 37.5625 -56.5625 C 34.5625 -57.65625 31.421875 -58.203125 28.140625 -58.203125 C 23.953125 -58.203125 20.644531 -57.210938 18.21875 -55.234375 C 15.789062 -53.265625 14.578125 -50.828125 14.578125 -47.921875 L 14.578125 -47.734375 C 14.578125 -46.210938 14.816406 -44.859375 15.296875 -43.671875 C 15.785156 -42.492188 16.664062 -41.398438 17.9375 -40.390625 C 19.21875 -39.390625 20.976562 -38.476562 23.21875 -37.65625 C 25.46875 -36.84375 28.359375 -36.070312 31.890625 -35.34375 C 38.992188 -33.757812 44.226562 -31.570312 47.59375 -28.78125 C 50.96875 -25.988281 52.65625 -22.164062 52.65625 -17.3125 L 52.65625 -17.125 C 52.65625 -14.394531 52.109375 -11.921875 51.015625 -9.703125 C 49.921875 -7.484375 48.414062 -5.582031 46.5 -4 C 44.59375 -2.425781 42.300781 -1.210938 39.625 -0.359375 C 36.957031 0.484375 34.039062 0.90625 30.875 0.90625 Z M 30.875 0.90625 "/></g></g></g></svg>