<?xml version="1.0" encoding="UTF-8" standalone="no" ?>
<!DOCTYPE svg PUBLIC "-//W3C//DTD SVG 1.1//EN" "http://www.w3.org/Graphics/SVG/1.1/DTD/svg11.dtd">
<svg xmlns="http://www.w3.org/2000/svg" xmlns:xlink="http://www.w3.org/1999/xlink" version="1.1" width="1080" height="1080" viewBox="0 0 1080 1080" xml:space="preserve">
<desc>Created with Fabric.js 5.3.0</desc>
<defs>
</defs>
<g transform="matrix(1.347008469 0 0 1.347008469 556.3411139077 543.6565501493)" id="frYxGXLd6Bl6jjcOzpU3k"  >
<path style="stroke: rgb(0,0,0); stroke-width: 0; stroke-dasharray: none; stroke-linecap: butt; stroke-dashoffset: 0; stroke-linejoin: miter; stroke-miterlimit: 4; fill: rgb(255,255,255); fill-rule: nonzero; opacity: 1;" vector-effect="non-scaling-stroke"  transform=" translate(0.0000034283, 0.000005)" d="M 278.63115 -385.2329 C 291.62452 -385.2329 303.40605 -377.60107999999997 308.71815 -365.7432 C 314.03024999999997 -353.88532 311.88203 -340.01324 303.23215999999996 -330.3175 L -18.68978000000004 30.528689999999983 C -42.46955000000004 57.18371999999998 -54.42340000000004 92.34272999999999 -51.81867000000004 127.96833999999998 L -36.20269000000004 341.55236 C -35.37773000000004 352.83546 -39.28494000000004 363.95303 -46.98741000000004 372.23922000000005 C -54.68988000000004 380.52541 -65.49294000000003 385.23290000000003 -76.80616000000003 385.23290000000003 L -183.58035000000004 385.23290000000003 C -206.80123000000003 385.23290000000003 -225.62547000000004 366.40866000000005 -225.62547000000004 343.18778000000003 L -225.62547000000004 70.68703000000005 L -369.29015000000004 -341.14138999999994 C -372.82855000000006 -351.28454999999997 -371.23513 -362.5132899999999 -365.01451000000003 -371.27158999999995 C -358.79389000000003 -380.02988999999997 -348.71658 -385.23290999999995 -337.97396000000003 -385.23290999999995 L -129.31724000000003 -385.23290999999995 L -128.84048 -288.92467999999997 L -163.57294000000002 -237.33673999999996 C -172.53230000000002 -224.02944999999997 -176.35305000000002 -207.92083999999997 -174.32448000000002 -192.00735999999995 L -153.62691 -29.64184999999995 C -153.22140000000002 -26.46079999999995 -150.5145 -24.077059999999946 -147.30771000000001 -24.077059999999946 L -144.73386000000002 -24.077059999999946 C -142.91175 -24.077059999999946 -141.17029000000002 -24.828479999999946 -139.92018000000002 -26.154109999999946 C -138.67007 -27.479739999999946 -138.02197 -29.262229999999946 -138.12872000000002 -31.081209999999945 L -147.50289 -190.80784999999995 C -147.63057 -192.98328999999995 -146.83604 -195.11190999999994 -145.31416000000002 -196.67163999999994 C -143.79229 -198.23136999999994 -141.68384 -199.07794999999993 -139.50591000000003 -199.00375999999994 L -134.26251000000002 -198.82513999999995 C -131.18060000000003 -198.72014999999996 -128.67559000000003 -196.30476999999993 -128.45843000000002 -193.22872999999996 L -116.80095000000003 -28.10239999999996 C -116.64086000000003 -25.83481999999996 -114.75462000000003 -24.07704999999996 -112.48140000000004 -24.07704999999996 L -108.85972000000004 -24.07704999999996 C -106.57890000000003 -24.07704999999996 -104.71208000000004 -25.89178999999996 -104.64758000000003 -28.17169999999996 L -99.92790000000004 -194.98846999999995 C -99.88007000000003 -196.67892999999995 -99.15698000000003 -198.27977999999996 -97.92024000000004 -199.43321999999995 C -96.68350000000004 -200.58665999999994 -95.03621000000004 -201.19654999999995 -93.34651000000004 -201.12657999999996 L -87.72737000000004 -200.89388999999997 C -85.62492000000003 -200.80682999999996 -83.95395000000003 -199.09745999999998 -83.91467000000003 -196.99356999999998 L -80.78220000000003 -29.21029999999999 C -80.72898000000004 -26.35989999999999 -78.40309000000003 -24.07702999999999 -75.55220000000003 -24.07702999999999 L -72.86669000000003 -24.07702999999999 C -70.14089000000003 -24.07702999999999 -67.88351000000003 -26.19364999999999 -67.70824000000003 -28.91380999999999 L -56.98259000000003 -195.37503999999998 C -56.77461000000003 -198.60290999999998 -54.04009000000003 -201.08176999999998 -50.80736000000003 -200.97293 L -42.40246000000003 -200.68994999999998 C -41.03833000000003 -200.64403 -39.750070000000036 -200.05104999999998 -38.82802000000003 -199.04466999999997 C -37.90597000000003 -198.03827999999996 -37.42772000000003 -196.70317999999997 -37.50105000000003 -195.34023999999997 L -46.35707000000003 -30.744909999999976 C -46.450410000000026 -29.010149999999975 -45.82642000000003 -27.313309999999976 -44.631440000000026 -26.052299999999974 C -43.436460000000025 -24.791289999999975 -41.77559000000002 -24.077039999999975 -40.03832000000003 -24.077039999999975 L -37.45068000000003 -24.077039999999975 C -34.64257000000003 -24.077039999999975 -32.275620000000025 -26.171679999999974 -31.934110000000025 -28.958939999999977 L -12.404220000000024 -188.35429 C -10.162880000000023 -206.64724999999999 -14.507630000000024 -225.14061999999998 -24.660230000000023 -240.52179999999998 L -56.609320000000025 -288.92465999999996 L -57.086080000000024 -385.23288999999994 z M 67.50338 47.59915 C 61.21679 30.43975 72.32883000000001 3.350840000000005 84.14485 -10.590029999999999 L 141.50271 -71.62492 C 148.32864 -79.67835000000001 158.82219 -83.64682 169.26906 -82.12564 C 179.71593 -80.60446 188.64203 -73.80829 192.88789 -64.14269 L 369.03178 336.84522 C 372.35505 344.41058 371.72213000000005 353.12984 367.34112000000005 360.13595999999995 C 362.96011000000004 367.14206999999993 355.39795000000004 371.5284 347.14121000000006 371.85263999999995 L 225.89689000000004 372.23921999999993 C 208.35217000000003 372.92819999999995 175.30917000000005 358.03898999999996 169.26906000000002 341.5523599999999 z" stroke-linecap="round" />
</g>
</svg>